<mxfile host="app.diagrams.net" modified="2023-10-17T13:55:42.089Z" agent="Mozilla/5.0 (X11; Ubuntu; Linux x86_64; rv:109.0) Gecko/20100101 Firefox/118.0" etag="0pJhjacfDwkNd3w3Mr_f" version="22.0.4" type="device">
  <diagram name="Página-1" id="5-w2n8aKjEj4W2KTCGba">
    <mxGraphModel dx="1364" dy="795" grid="1" gridSize="10" guides="1" tooltips="1" connect="1" arrows="1" fold="1" page="1" pageScale="1" pageWidth="827" pageHeight="1169" math="0" shadow="0">
      <root>
        <mxCell id="0" />
        <mxCell id="1" parent="0" />
        <mxCell id="_Xig-yr3xcJaS5qAGyrN-93" value="" style="endArrow=classic;html=1;rounded=0;exitX=0;exitY=0.5;exitDx=0;exitDy=0;fillColor=none;" edge="1" parent="1">
          <mxGeometry width="50" height="50" relative="1" as="geometry">
            <mxPoint x="210" y="944.5" as="sourcePoint" />
            <mxPoint x="140" y="945" as="targetPoint" />
          </mxGeometry>
        </mxCell>
        <mxCell id="_Xig-yr3xcJaS5qAGyrN-85" value="" style="endArrow=classic;html=1;rounded=0;exitX=1.011;exitY=0.789;exitDx=0;exitDy=0;fillColor=none;exitPerimeter=0;" edge="1" parent="1" source="Qi0XVNb7pihfamDj6da_-3">
          <mxGeometry width="50" height="50" relative="1" as="geometry">
            <mxPoint x="644" y="860" as="sourcePoint" />
            <mxPoint x="590" y="875" as="targetPoint" />
          </mxGeometry>
        </mxCell>
        <mxCell id="_Xig-yr3xcJaS5qAGyrN-83" value="" style="endArrow=classic;html=1;rounded=0;exitX=-0.011;exitY=0.629;exitDx=0;exitDy=0;exitPerimeter=0;" edge="1" parent="1" source="_Xig-yr3xcJaS5qAGyrN-70">
          <mxGeometry width="50" height="50" relative="1" as="geometry">
            <mxPoint x="210" y="734.5" as="sourcePoint" />
            <mxPoint x="150" y="650" as="targetPoint" />
          </mxGeometry>
        </mxCell>
        <mxCell id="_Xig-yr3xcJaS5qAGyrN-84" value="" style="endArrow=classic;html=1;rounded=0;exitX=0;exitY=0.5;exitDx=0;exitDy=0;fillColor=none;" edge="1" parent="1">
          <mxGeometry width="50" height="50" relative="1" as="geometry">
            <mxPoint x="210" y="804.5" as="sourcePoint" />
            <mxPoint x="140" y="805" as="targetPoint" />
          </mxGeometry>
        </mxCell>
        <mxCell id="Qi0XVNb7pihfamDj6da_-2" value="&lt;div&gt;Ejecución linea 33 a 43 de 15.s.&lt;/div&gt;&lt;div&gt;Sigue step linea 15 de 15.c, se podría pensar&lt;/div&gt;&lt;div&gt;&amp;nbsp;como el paso anterior al primer printf de f (linea 3 15.c).&lt;br&gt;&lt;/div&gt;" style="text;strokeColor=none;fillColor=none;html=1;fontSize=24;fontStyle=1;verticalAlign=middle;align=center;" parent="1" vertex="1">
          <mxGeometry x="81" y="20" width="666" height="80" as="geometry" />
        </mxCell>
        <mxCell id="Qi0XVNb7pihfamDj6da_-32" value="" style="endArrow=classic;html=1;rounded=0;" parent="1" edge="1">
          <mxGeometry width="50" height="50" relative="1" as="geometry">
            <mxPoint x="499" y="392" as="sourcePoint" />
            <mxPoint x="570" y="392" as="targetPoint" />
            <Array as="points" />
          </mxGeometry>
        </mxCell>
        <UserObject label="&lt;div&gt;&lt;font style=&quot;font-size: 14px;&quot;&gt;direccion: rbp + 24 = 0x7fffffffdef8&amp;nbsp; descripción: (argumento 8 de f)&lt;/font&gt;&lt;/div&gt;&lt;div&gt;&lt;font style=&quot;font-size: 14px;&quot;&gt;tamaño: 8bytes&lt;br&gt;&lt;/font&gt;&lt;/div&gt;" placeholders="1" name="Variable" id="Qi0XVNb7pihfamDj6da_-33">
          <mxCell style="text;html=1;strokeColor=none;fillColor=none;align=center;verticalAlign=middle;whiteSpace=wrap;overflow=hidden;" parent="1" vertex="1">
            <mxGeometry x="570" y="367.5" width="220" height="50" as="geometry" />
          </mxCell>
        </UserObject>
        <mxCell id="Qi0XVNb7pihfamDj6da_-34" value="" style="endArrow=classic;html=1;rounded=0;" parent="1" edge="1">
          <mxGeometry width="50" height="50" relative="1" as="geometry">
            <mxPoint x="500" y="454.5" as="sourcePoint" />
            <mxPoint x="571" y="454.5" as="targetPoint" />
            <Array as="points" />
          </mxGeometry>
        </mxCell>
        <UserObject label="&lt;font style=&quot;font-size: 14px;&quot;&gt;dirección: rbp = 0x7fffffffdee0&lt;/font&gt;" placeholders="1" name="Variable" id="Qi0XVNb7pihfamDj6da_-36">
          <mxCell style="text;html=1;strokeColor=none;fillColor=none;align=center;verticalAlign=middle;whiteSpace=wrap;overflow=hidden;" parent="1" vertex="1">
            <mxGeometry x="570" y="625" width="190" height="20" as="geometry" />
          </mxCell>
        </UserObject>
        <mxCell id="Qi0XVNb7pihfamDj6da_-37" value="" style="endArrow=classic;html=1;rounded=0;" parent="1" edge="1">
          <mxGeometry width="50" height="50" relative="1" as="geometry">
            <mxPoint x="499" y="634.5" as="sourcePoint" />
            <mxPoint x="570" y="635" as="targetPoint" />
            <Array as="points" />
          </mxGeometry>
        </mxCell>
        <UserObject label="&lt;div&gt;&lt;font style=&quot;font-size: 14px;&quot;&gt;direccion: rbp + 16 = 0x7fffffffdef0&amp;nbsp; descripción: (argumento 7 de f)&lt;/font&gt;&lt;/div&gt;&lt;div&gt;&lt;font style=&quot;font-size: 14px;&quot;&gt;tamaño: 8bytes&lt;br&gt;&lt;/font&gt;&lt;/div&gt;" placeholders="1" name="Variable" id="_Xig-yr3xcJaS5qAGyrN-3">
          <mxCell style="text;html=1;strokeColor=none;fillColor=none;align=center;verticalAlign=middle;whiteSpace=wrap;overflow=hidden;" vertex="1" parent="1">
            <mxGeometry x="570" y="430" width="220" height="50" as="geometry" />
          </mxCell>
        </UserObject>
        <mxCell id="_Xig-yr3xcJaS5qAGyrN-4" value="" style="endArrow=classic;html=1;rounded=0;" edge="1" parent="1">
          <mxGeometry width="50" height="50" relative="1" as="geometry">
            <mxPoint x="500" y="514.5" as="sourcePoint" />
            <mxPoint x="571" y="514.5" as="targetPoint" />
            <Array as="points" />
          </mxGeometry>
        </mxCell>
        <UserObject label="&lt;font style=&quot;font-size: 14px;&quot;&gt;direccion: rbp + 8 = 0x7fffffffdee8&amp;nbsp; &lt;br&gt;&lt;/font&gt;" placeholders="1" name="Variable" id="_Xig-yr3xcJaS5qAGyrN-5">
          <mxCell style="text;html=1;strokeColor=none;fillColor=none;align=center;verticalAlign=middle;whiteSpace=wrap;overflow=hidden;" vertex="1" parent="1">
            <mxGeometry x="570" y="490" width="220" height="50" as="geometry" />
          </mxCell>
        </UserObject>
        <mxCell id="Qi0XVNb7pihfamDj6da_-3" value="" style="shape=table;startSize=0;container=1;collapsible=0;childLayout=tableLayout;fontSize=16;fillColor=#ffe6cc;strokeColor=#d79b00;" parent="1" vertex="1">
          <mxGeometry x="170" y="220" width="380" height="830" as="geometry" />
        </mxCell>
        <mxCell id="Qi0XVNb7pihfamDj6da_-30" style="shape=tableRow;horizontal=0;startSize=0;swimlaneHead=0;swimlaneBody=0;strokeColor=inherit;top=0;left=0;bottom=0;right=0;collapsible=0;dropTarget=0;fillColor=none;points=[[0,0.5],[1,0.5]];portConstraint=eastwest;fontSize=16;" parent="Qi0XVNb7pihfamDj6da_-3" vertex="1">
          <mxGeometry width="380" height="40" as="geometry" />
        </mxCell>
        <mxCell id="Qi0XVNb7pihfamDj6da_-31" value="..." style="shape=partialRectangle;html=1;whiteSpace=wrap;connectable=0;strokeColor=inherit;overflow=hidden;fillColor=none;top=0;left=0;bottom=0;right=0;pointerEvents=1;fontSize=16;" parent="Qi0XVNb7pihfamDj6da_-30" vertex="1">
          <mxGeometry width="380" height="40" as="geometry">
            <mxRectangle width="380" height="40" as="alternateBounds" />
          </mxGeometry>
        </mxCell>
        <mxCell id="Qi0XVNb7pihfamDj6da_-4" value="" style="shape=tableRow;horizontal=0;startSize=0;swimlaneHead=0;swimlaneBody=0;strokeColor=inherit;top=0;left=0;bottom=0;right=0;collapsible=0;dropTarget=0;fillColor=none;points=[[0,0.5],[1,0.5]];portConstraint=eastwest;fontSize=16;" parent="Qi0XVNb7pihfamDj6da_-3" vertex="1">
          <mxGeometry y="40" width="380" height="40" as="geometry" />
        </mxCell>
        <mxCell id="Qi0XVNb7pihfamDj6da_-5" value="Comienzo de pila" style="shape=partialRectangle;html=1;whiteSpace=wrap;connectable=0;strokeColor=inherit;overflow=hidden;fillColor=none;top=0;left=0;bottom=0;right=0;pointerEvents=1;fontSize=16;" parent="Qi0XVNb7pihfamDj6da_-4" vertex="1">
          <mxGeometry width="380" height="40" as="geometry">
            <mxRectangle width="380" height="40" as="alternateBounds" />
          </mxGeometry>
        </mxCell>
        <mxCell id="Qi0XVNb7pihfamDj6da_-8" value="" style="shape=tableRow;horizontal=0;startSize=0;swimlaneHead=0;swimlaneBody=0;strokeColor=inherit;top=0;left=0;bottom=0;right=0;collapsible=0;dropTarget=0;fillColor=none;points=[[0,0.5],[1,0.5]];portConstraint=eastwest;fontSize=16;" parent="Qi0XVNb7pihfamDj6da_-3" vertex="1">
          <mxGeometry y="80" width="380" height="50" as="geometry" />
        </mxCell>
        <mxCell id="Qi0XVNb7pihfamDj6da_-9" value="Marcos de activación anteriores" style="shape=partialRectangle;html=1;whiteSpace=wrap;connectable=0;strokeColor=inherit;overflow=hidden;fillColor=none;top=0;left=0;bottom=0;right=0;pointerEvents=1;fontSize=16;" parent="Qi0XVNb7pihfamDj6da_-8" vertex="1">
          <mxGeometry width="380" height="50" as="geometry">
            <mxRectangle width="380" height="50" as="alternateBounds" />
          </mxGeometry>
        </mxCell>
        <mxCell id="Qi0XVNb7pihfamDj6da_-16" style="shape=tableRow;horizontal=0;startSize=0;swimlaneHead=0;swimlaneBody=0;strokeColor=inherit;top=0;left=0;bottom=0;right=0;collapsible=0;dropTarget=0;fillColor=none;points=[[0,0.5],[1,0.5]];portConstraint=eastwest;fontSize=16;" parent="Qi0XVNb7pihfamDj6da_-3" vertex="1">
          <mxGeometry y="130" width="380" height="70" as="geometry" />
        </mxCell>
        <mxCell id="Qi0XVNb7pihfamDj6da_-17" value="8" style="shape=partialRectangle;html=1;whiteSpace=wrap;connectable=0;strokeColor=inherit;overflow=hidden;fillColor=none;top=0;left=0;bottom=0;right=0;pointerEvents=1;fontSize=16;" parent="Qi0XVNb7pihfamDj6da_-16" vertex="1">
          <mxGeometry width="380" height="70" as="geometry">
            <mxRectangle width="380" height="70" as="alternateBounds" />
          </mxGeometry>
        </mxCell>
        <mxCell id="Qi0XVNb7pihfamDj6da_-18" style="shape=tableRow;horizontal=0;startSize=0;swimlaneHead=0;swimlaneBody=0;strokeColor=inherit;top=0;left=0;bottom=0;right=0;collapsible=0;dropTarget=0;fillColor=none;points=[[0,0.5],[1,0.5]];portConstraint=eastwest;fontSize=16;" parent="Qi0XVNb7pihfamDj6da_-3" vertex="1">
          <mxGeometry y="200" width="380" height="60" as="geometry" />
        </mxCell>
        <mxCell id="Qi0XVNb7pihfamDj6da_-19" value="7" style="shape=partialRectangle;html=1;whiteSpace=wrap;connectable=0;strokeColor=inherit;overflow=hidden;fillColor=none;top=0;left=0;bottom=0;right=0;pointerEvents=1;fontSize=16;" parent="Qi0XVNb7pihfamDj6da_-18" vertex="1">
          <mxGeometry width="380" height="60" as="geometry">
            <mxRectangle width="380" height="60" as="alternateBounds" />
          </mxGeometry>
        </mxCell>
        <mxCell id="Qi0XVNb7pihfamDj6da_-20" style="shape=tableRow;horizontal=0;startSize=0;swimlaneHead=0;swimlaneBody=0;strokeColor=inherit;top=0;left=0;bottom=0;right=0;collapsible=0;dropTarget=0;fillColor=none;points=[[0,0.5],[1,0.5]];portConstraint=eastwest;fontSize=16;" parent="Qi0XVNb7pihfamDj6da_-3" vertex="1">
          <mxGeometry y="260" width="380" height="70" as="geometry" />
        </mxCell>
        <mxCell id="Qi0XVNb7pihfamDj6da_-21" value="direccion de retorno a main" style="shape=partialRectangle;html=1;whiteSpace=wrap;connectable=0;strokeColor=inherit;overflow=hidden;fillColor=none;top=0;left=0;bottom=0;right=0;pointerEvents=1;fontSize=16;" parent="Qi0XVNb7pihfamDj6da_-20" vertex="1">
          <mxGeometry width="380" height="70" as="geometry">
            <mxRectangle width="380" height="70" as="alternateBounds" />
          </mxGeometry>
        </mxCell>
        <mxCell id="Qi0XVNb7pihfamDj6da_-22" style="shape=tableRow;horizontal=0;startSize=0;swimlaneHead=0;swimlaneBody=0;strokeColor=inherit;top=0;left=0;bottom=0;right=0;collapsible=0;dropTarget=0;fillColor=none;points=[[0,0.5],[1,0.5]];portConstraint=eastwest;fontSize=16;" parent="Qi0XVNb7pihfamDj6da_-3" vertex="1">
          <mxGeometry y="330" width="380" height="150" as="geometry" />
        </mxCell>
        <mxCell id="Qi0XVNb7pihfamDj6da_-23" value="rbp de f. guarda rsp de main" style="shape=partialRectangle;html=1;whiteSpace=wrap;connectable=0;strokeColor=inherit;overflow=hidden;fillColor=none;top=0;left=0;bottom=0;right=0;pointerEvents=1;fontSize=16;" parent="Qi0XVNb7pihfamDj6da_-22" vertex="1">
          <mxGeometry width="380" height="150" as="geometry">
            <mxRectangle width="380" height="150" as="alternateBounds" />
          </mxGeometry>
        </mxCell>
        <mxCell id="Qi0XVNb7pihfamDj6da_-24" style="shape=tableRow;horizontal=0;startSize=0;swimlaneHead=0;swimlaneBody=0;strokeColor=inherit;top=0;left=0;bottom=0;right=0;collapsible=0;dropTarget=0;fillColor=none;points=[[0,0.5],[1,0.5]];portConstraint=eastwest;fontSize=16;" parent="Qi0XVNb7pihfamDj6da_-3" vertex="1">
          <mxGeometry y="480" width="380" height="70" as="geometry" />
        </mxCell>
        <mxCell id="Qi0XVNb7pihfamDj6da_-25" value="" style="shape=partialRectangle;html=1;whiteSpace=wrap;connectable=0;strokeColor=inherit;overflow=hidden;fillColor=none;top=0;left=0;bottom=0;right=0;pointerEvents=1;fontSize=16;" parent="Qi0XVNb7pihfamDj6da_-24" vertex="1">
          <mxGeometry width="380" height="70" as="geometry">
            <mxRectangle width="380" height="70" as="alternateBounds" />
          </mxGeometry>
        </mxCell>
        <mxCell id="_Xig-yr3xcJaS5qAGyrN-45" style="shape=tableRow;horizontal=0;startSize=0;swimlaneHead=0;swimlaneBody=0;strokeColor=inherit;top=0;left=0;bottom=0;right=0;collapsible=0;dropTarget=0;fillColor=none;points=[[0,0.5],[1,0.5]];portConstraint=eastwest;fontSize=16;" vertex="1" parent="Qi0XVNb7pihfamDj6da_-3">
          <mxGeometry y="550" width="380" height="70" as="geometry" />
        </mxCell>
        <mxCell id="_Xig-yr3xcJaS5qAGyrN-46" value="&lt;table&gt;&lt;tbody&gt;&lt;tr&gt;&lt;/tr&gt;&lt;/tbody&gt;&lt;/table&gt;&lt;table&gt;&lt;tbody&gt;&lt;tr&gt;&lt;td&gt;&lt;br&gt;&lt;/td&gt;&lt;td&gt;&lt;br&gt;&lt;/td&gt;&lt;td&gt;&lt;br&gt;&lt;/td&gt;&lt;/tr&gt;&lt;/tbody&gt;&lt;/table&gt;&lt;br&gt;&lt;br&gt;" style="shape=partialRectangle;html=1;whiteSpace=wrap;connectable=0;strokeColor=inherit;overflow=hidden;fillColor=none;top=0;left=0;bottom=0;right=0;pointerEvents=1;fontSize=16;" vertex="1" parent="_Xig-yr3xcJaS5qAGyrN-45">
          <mxGeometry width="380" height="70" as="geometry">
            <mxRectangle width="380" height="70" as="alternateBounds" />
          </mxGeometry>
        </mxCell>
        <mxCell id="_Xig-yr3xcJaS5qAGyrN-47" style="shape=tableRow;horizontal=0;startSize=0;swimlaneHead=0;swimlaneBody=0;strokeColor=inherit;top=0;left=0;bottom=0;right=0;collapsible=0;dropTarget=0;fillColor=none;points=[[0,0.5],[1,0.5]];portConstraint=eastwest;fontSize=16;" vertex="1" parent="Qi0XVNb7pihfamDj6da_-3">
          <mxGeometry y="620" width="380" height="70" as="geometry" />
        </mxCell>
        <mxCell id="_Xig-yr3xcJaS5qAGyrN-48" style="shape=partialRectangle;html=1;whiteSpace=wrap;connectable=0;strokeColor=inherit;overflow=hidden;fillColor=none;top=0;left=0;bottom=0;right=0;pointerEvents=1;fontSize=16;" vertex="1" parent="_Xig-yr3xcJaS5qAGyrN-47">
          <mxGeometry width="380" height="70" as="geometry">
            <mxRectangle width="380" height="70" as="alternateBounds" />
          </mxGeometry>
        </mxCell>
        <mxCell id="_Xig-yr3xcJaS5qAGyrN-49" style="shape=tableRow;horizontal=0;startSize=0;swimlaneHead=0;swimlaneBody=0;strokeColor=inherit;top=0;left=0;bottom=0;right=0;collapsible=0;dropTarget=0;fillColor=none;points=[[0,0.5],[1,0.5]];portConstraint=eastwest;fontSize=16;" vertex="1" parent="Qi0XVNb7pihfamDj6da_-3">
          <mxGeometry y="690" width="380" height="70" as="geometry" />
        </mxCell>
        <mxCell id="_Xig-yr3xcJaS5qAGyrN-50" style="shape=partialRectangle;html=1;whiteSpace=wrap;connectable=0;strokeColor=inherit;overflow=hidden;fillColor=none;top=0;left=0;bottom=0;right=0;pointerEvents=1;fontSize=16;strokeWidth=2;" vertex="1" parent="_Xig-yr3xcJaS5qAGyrN-49">
          <mxGeometry width="380" height="70" as="geometry">
            <mxRectangle width="380" height="70" as="alternateBounds" />
          </mxGeometry>
        </mxCell>
        <mxCell id="_Xig-yr3xcJaS5qAGyrN-51" style="shape=tableRow;horizontal=0;startSize=0;swimlaneHead=0;swimlaneBody=0;strokeColor=inherit;top=0;left=0;bottom=0;right=0;collapsible=0;dropTarget=0;fillColor=none;points=[[0,0.5],[1,0.5]];portConstraint=eastwest;fontSize=16;" vertex="1" parent="Qi0XVNb7pihfamDj6da_-3">
          <mxGeometry y="760" width="380" height="70" as="geometry" />
        </mxCell>
        <mxCell id="_Xig-yr3xcJaS5qAGyrN-52" value="libre o no utilizado por f ni ningún marco anterior a f" style="shape=partialRectangle;html=1;whiteSpace=wrap;connectable=0;strokeColor=inherit;overflow=hidden;fillColor=none;top=0;left=0;bottom=0;right=0;pointerEvents=1;fontSize=16;" vertex="1" parent="_Xig-yr3xcJaS5qAGyrN-51">
          <mxGeometry width="380" height="70" as="geometry">
            <mxRectangle width="380" height="70" as="alternateBounds" />
          </mxGeometry>
        </mxCell>
        <UserObject label="&lt;font style=&quot;font-size: 18px;&quot;&gt;Se pasan todos los argumentos que estan en registros (6) a memoria, caso contrario, al llamar a printf se perderian pues la mayoria de esos registros no son preservados.&lt;/font&gt;" placeholders="1" name="Variable" id="_Xig-yr3xcJaS5qAGyrN-32">
          <mxCell style="text;html=1;strokeColor=none;fillColor=none;align=center;verticalAlign=middle;whiteSpace=wrap;overflow=hidden;" vertex="1" parent="1">
            <mxGeometry x="184" y="100" width="460" height="130" as="geometry" />
          </mxCell>
        </UserObject>
        <mxCell id="_Xig-yr3xcJaS5qAGyrN-34" value="&lt;font style=&quot;font-size: 25px;&quot;&gt;B&lt;/font&gt;" style="shape=ext;double=1;rounded=0;whiteSpace=wrap;html=1;fillColor=#dae8fc;strokeColor=#6c8ebf;" vertex="1" parent="1">
          <mxGeometry x="790" y="500" width="30" height="30" as="geometry" />
        </mxCell>
        <mxCell id="_Xig-yr3xcJaS5qAGyrN-55" value="&lt;font style=&quot;font-size: 25px;&quot;&gt;A&lt;/font&gt;" style="shape=ext;double=1;rounded=0;whiteSpace=wrap;html=1;fillColor=#fad9d5;strokeColor=#ae4132;" vertex="1" parent="1">
          <mxGeometry x="790" y="440" width="30" height="30" as="geometry" />
        </mxCell>
        <mxCell id="_Xig-yr3xcJaS5qAGyrN-56" value="&lt;font style=&quot;font-size: 25px;&quot;&gt;A&lt;/font&gt;" style="shape=ext;double=1;rounded=0;whiteSpace=wrap;html=1;fillColor=#fad9d5;strokeColor=#ae4132;" vertex="1" parent="1">
          <mxGeometry x="790" y="380" width="30" height="25" as="geometry" />
        </mxCell>
        <mxCell id="_Xig-yr3xcJaS5qAGyrN-70" value="2" style="rounded=0;whiteSpace=wrap;html=1;fillColor=none;strokeWidth=2;" vertex="1" parent="1">
          <mxGeometry x="170" y="700" width="180" height="70" as="geometry" />
        </mxCell>
        <mxCell id="_Xig-yr3xcJaS5qAGyrN-71" value="&#39;1&#39;" style="rounded=0;whiteSpace=wrap;html=1;fillColor=none;strokeWidth=2;" vertex="1" parent="1">
          <mxGeometry x="350" y="700" width="100" height="70" as="geometry" />
        </mxCell>
        <mxCell id="_Xig-yr3xcJaS5qAGyrN-72" value="&lt;div&gt;libre&lt;/div&gt;&lt;div&gt;&lt;div&gt;[rbp - 3, rbp)&lt;/div&gt;&lt;/div&gt;" style="rounded=0;whiteSpace=wrap;html=1;fillColor=none;strokeWidth=2;" vertex="1" parent="1">
          <mxGeometry x="450" y="700" width="100" height="70" as="geometry" />
        </mxCell>
        <mxCell id="_Xig-yr3xcJaS5qAGyrN-74" value="&#39;5&#39;" style="rounded=0;whiteSpace=wrap;html=1;fillColor=none;strokeWidth=2;" vertex="1" parent="1">
          <mxGeometry x="170" y="770" width="100" height="70" as="geometry" />
        </mxCell>
        <mxCell id="_Xig-yr3xcJaS5qAGyrN-75" value="&lt;div&gt;libre&lt;/div&gt;&lt;div&gt;[rbp-15, rbp-12)&lt;br&gt;&lt;/div&gt;" style="rounded=0;whiteSpace=wrap;html=1;fillColor=none;strokeWidth=2;" vertex="1" parent="1">
          <mxGeometry x="270" y="770" width="100" height="70" as="geometry" />
        </mxCell>
        <mxCell id="_Xig-yr3xcJaS5qAGyrN-76" value="&#39;3&#39;" style="rounded=0;whiteSpace=wrap;html=1;fillColor=none;strokeWidth=2;" vertex="1" parent="1">
          <mxGeometry x="370" y="770" width="80" height="70" as="geometry" />
        </mxCell>
        <mxCell id="_Xig-yr3xcJaS5qAGyrN-77" value="&lt;div&gt;libre&lt;/div&gt;&lt;div&gt;[rbp - 11, rbp - 8)&lt;/div&gt;" style="rounded=0;whiteSpace=wrap;html=1;fillColor=none;strokeWidth=2;" vertex="1" parent="1">
          <mxGeometry x="450" y="770" width="100" height="70" as="geometry" />
        </mxCell>
        <mxCell id="_Xig-yr3xcJaS5qAGyrN-79" value="6" style="rounded=0;whiteSpace=wrap;html=1;fillColor=none;strokeWidth=2;" vertex="1" parent="1">
          <mxGeometry x="400" y="910" width="90" height="70" as="geometry" />
        </mxCell>
        <UserObject label="&lt;font style=&quot;font-size: 14px;&quot;&gt;dirección: rbp - 32 = 0x7fffffffdec0&lt;/font&gt;" placeholders="1" name="Variable" id="_Xig-yr3xcJaS5qAGyrN-81">
          <mxCell style="text;html=1;strokeColor=none;fillColor=none;align=center;verticalAlign=middle;whiteSpace=wrap;overflow=hidden;" vertex="1" parent="1">
            <mxGeometry x="10" y="930" width="130" height="45" as="geometry" />
          </mxCell>
        </UserObject>
        <mxCell id="_Xig-yr3xcJaS5qAGyrN-82" value="4" style="rounded=0;whiteSpace=wrap;html=1;fillColor=none;strokeWidth=2;" vertex="1" parent="1">
          <mxGeometry x="170" y="840" width="380" height="70" as="geometry" />
        </mxCell>
        <UserObject label="&lt;div&gt;&lt;font style=&quot;font-size: 14px;&quot;&gt;direccion: rbp - 28 = 0x7fffffffdec4&amp;nbsp; descripción: (argumento 6 de f)&lt;/font&gt;&lt;/div&gt;&lt;div&gt;&lt;font style=&quot;font-size: 14px;&quot;&gt;tamaño: 2bytes&lt;/font&gt;&lt;/div&gt;&lt;div&gt;&lt;font style=&quot;font-size: 14px;&quot;&gt;rango: [rbp - 28, rbp - 26)&lt;br&gt;&lt;/font&gt;&lt;/div&gt;" placeholders="1" name="Variable" id="_Xig-yr3xcJaS5qAGyrN-91">
          <mxCell style="text;html=1;strokeColor=none;fillColor=none;align=center;verticalAlign=middle;whiteSpace=wrap;overflow=hidden;" vertex="1" parent="1">
            <mxGeometry x="570" y="970" width="220" height="80" as="geometry" />
          </mxCell>
        </UserObject>
        <mxCell id="_Xig-yr3xcJaS5qAGyrN-92" value="rsp de f" style="rounded=0;whiteSpace=wrap;html=1;fillColor=none;strokeWidth=2;" vertex="1" parent="1">
          <mxGeometry x="170" y="910" width="230" height="70" as="geometry" />
        </mxCell>
        <mxCell id="_Xig-yr3xcJaS5qAGyrN-97" value="" style="endArrow=classic;html=1;rounded=0;" edge="1" parent="1" source="_Xig-yr3xcJaS5qAGyrN-79" target="_Xig-yr3xcJaS5qAGyrN-91">
          <mxGeometry width="50" height="50" relative="1" as="geometry">
            <mxPoint x="400" y="860" as="sourcePoint" />
            <mxPoint x="450" y="810" as="targetPoint" />
          </mxGeometry>
        </mxCell>
        <UserObject label="&lt;font style=&quot;font-size: 14px;&quot;&gt;rango: [rbp - 26, rbp - 24)&lt;/font&gt;" placeholders="1" name="Variable" id="_Xig-yr3xcJaS5qAGyrN-98">
          <mxCell style="text;html=1;strokeColor=none;fillColor=none;align=center;verticalAlign=middle;whiteSpace=wrap;overflow=hidden;" vertex="1" parent="1">
            <mxGeometry x="585" y="930" width="190" height="20" as="geometry" />
          </mxCell>
        </UserObject>
        <mxCell id="_Xig-yr3xcJaS5qAGyrN-99" value="libre" style="rounded=0;whiteSpace=wrap;html=1;fillColor=none;strokeWidth=2;" vertex="1" parent="1">
          <mxGeometry x="490" y="910" width="60" height="70" as="geometry" />
        </mxCell>
        <mxCell id="_Xig-yr3xcJaS5qAGyrN-100" value="" style="endArrow=classic;html=1;rounded=0;exitX=1.005;exitY=0.875;exitDx=0;exitDy=0;exitPerimeter=0;entryX=0;entryY=0.5;entryDx=0;entryDy=0;" edge="1" parent="1" source="Qi0XVNb7pihfamDj6da_-3" target="_Xig-yr3xcJaS5qAGyrN-98">
          <mxGeometry width="50" height="50" relative="1" as="geometry">
            <mxPoint x="715" y="942.5" as="sourcePoint" />
            <mxPoint x="615" y="807.5" as="targetPoint" />
          </mxGeometry>
        </mxCell>
        <UserObject label="&lt;div&gt;&lt;font style=&quot;font-size: 14px;&quot;&gt;direccion: rbp - 24 = 0x7fffffffdec8&amp;nbsp; descripción: (argumento 4 de f)&lt;/font&gt;&lt;/div&gt;&lt;div&gt;&lt;font style=&quot;font-size: 14px;&quot;&gt;tamaño: 8bytes&lt;/font&gt;&lt;/div&gt;&lt;div&gt;&lt;font style=&quot;font-size: 14px;&quot;&gt;rango: [rbp - 24, rbp - 16)&lt;br&gt;&lt;/font&gt;&lt;/div&gt;" placeholders="1" name="Variable" id="_Xig-yr3xcJaS5qAGyrN-101">
          <mxCell style="text;html=1;strokeColor=none;fillColor=none;align=center;verticalAlign=middle;whiteSpace=wrap;overflow=hidden;" vertex="1" parent="1">
            <mxGeometry x="585" y="835" width="220" height="80" as="geometry" />
          </mxCell>
        </UserObject>
        <mxCell id="_Xig-yr3xcJaS5qAGyrN-102" value="" style="endArrow=classic;html=1;rounded=0;" edge="1" parent="1">
          <mxGeometry width="50" height="50" relative="1" as="geometry">
            <mxPoint x="450" y="790" as="sourcePoint" />
            <mxPoint x="610" y="790" as="targetPoint" />
          </mxGeometry>
        </mxCell>
        <mxCell id="_Xig-yr3xcJaS5qAGyrN-103" value="" style="endArrow=classic;html=1;rounded=0;" edge="1" parent="1">
          <mxGeometry width="50" height="50" relative="1" as="geometry">
            <mxPoint x="450" y="720" as="sourcePoint" />
            <mxPoint x="610" y="720" as="targetPoint" />
          </mxGeometry>
        </mxCell>
        <UserObject label="&lt;div&gt;&lt;font style=&quot;font-size: 14px;&quot;&gt;direccion: rbp - 4 = 0x7fffffffdedc&amp;nbsp; descripción: (argumento 1 de f)&lt;/font&gt;&lt;/div&gt;&lt;div&gt;&lt;font style=&quot;font-size: 14px;&quot;&gt;tamaño: 1byte&lt;/font&gt;&lt;/div&gt;&lt;div&gt;&lt;font style=&quot;font-size: 14px;&quot;&gt;rango: [rbp - 4, rbp - 3)&lt;br&gt;&lt;/font&gt;&lt;/div&gt;" placeholders="1" name="Variable" id="_Xig-yr3xcJaS5qAGyrN-104">
          <mxCell style="text;html=1;strokeColor=none;fillColor=none;align=center;verticalAlign=middle;whiteSpace=wrap;overflow=hidden;" vertex="1" parent="1">
            <mxGeometry x="585" y="670" width="220" height="80" as="geometry" />
          </mxCell>
        </UserObject>
        <UserObject label="&lt;div&gt;&lt;font style=&quot;font-size: 14px;&quot;&gt;direccion: rbp - 12 = 0x7fffffffded4&amp;nbsp; descripción: (argumento 3 de f)&lt;/font&gt;&lt;/div&gt;&lt;div&gt;&lt;font style=&quot;font-size: 14px;&quot;&gt;tamaño: 1byte&lt;/font&gt;&lt;/div&gt;&lt;div&gt;&lt;font style=&quot;font-size: 14px;&quot;&gt;rango: [rbp - 12, rbp - 11)&lt;br&gt;&lt;/font&gt;&lt;/div&gt;" placeholders="1" name="Variable" id="_Xig-yr3xcJaS5qAGyrN-105">
          <mxCell style="text;html=1;strokeColor=none;fillColor=none;align=center;verticalAlign=middle;whiteSpace=wrap;overflow=hidden;" vertex="1" parent="1">
            <mxGeometry x="607" y="750" width="220" height="80" as="geometry" />
          </mxCell>
        </UserObject>
        <UserObject label="&lt;div&gt;&lt;font style=&quot;font-size: 14px;&quot;&gt;direccion: rbp - 8 = 0x7fffffffded8&amp;nbsp; descripción: (argumento 2 de f)&lt;/font&gt;&lt;/div&gt;&lt;div&gt;&lt;font style=&quot;font-size: 14px;&quot;&gt;tamaño: 4bytes&lt;/font&gt;&lt;/div&gt;&lt;div&gt;&lt;font style=&quot;font-size: 14px;&quot;&gt;rango: [rbp - 8, rbp - 4)&lt;br&gt;&lt;/font&gt;&lt;/div&gt;" placeholders="1" name="Variable" id="_Xig-yr3xcJaS5qAGyrN-106">
          <mxCell style="text;html=1;strokeColor=none;fillColor=none;align=center;verticalAlign=middle;whiteSpace=wrap;overflow=hidden;" vertex="1" parent="1">
            <mxGeometry y="540" width="150" height="190" as="geometry" />
          </mxCell>
        </UserObject>
        <UserObject label="&lt;div&gt;&lt;font style=&quot;font-size: 14px;&quot;&gt;direccion: rbp - 16 = 0x7fffffffded0&amp;nbsp; descripción: (argumento 5 de f)&lt;/font&gt;&lt;/div&gt;&lt;div&gt;&lt;font style=&quot;font-size: 14px;&quot;&gt;tamaño: 1byte&lt;/font&gt;&lt;/div&gt;&lt;div&gt;&lt;font style=&quot;font-size: 14px;&quot;&gt;rango: [rbp - 16, rbp - 15)&lt;br&gt;&lt;/font&gt;&lt;/div&gt;" placeholders="1" name="Variable" id="_Xig-yr3xcJaS5qAGyrN-107">
          <mxCell style="text;html=1;strokeColor=none;fillColor=none;align=center;verticalAlign=middle;whiteSpace=wrap;overflow=hidden;" vertex="1" parent="1">
            <mxGeometry y="740" width="160" height="190" as="geometry" />
          </mxCell>
        </UserObject>
        <mxCell id="_Xig-yr3xcJaS5qAGyrN-108" value="&lt;font style=&quot;font-size: 25px;&quot;&gt;A&lt;/font&gt;" style="shape=ext;double=1;rounded=0;whiteSpace=wrap;html=1;fillColor=#fad9d5;strokeColor=#ae4132;" vertex="1" parent="1">
          <mxGeometry x="555" y="680" width="30" height="30" as="geometry" />
        </mxCell>
        <mxCell id="_Xig-yr3xcJaS5qAGyrN-109" value="&lt;font style=&quot;font-size: 25px;&quot;&gt;A&lt;/font&gt;" style="shape=ext;double=1;rounded=0;whiteSpace=wrap;html=1;fillColor=#fad9d5;strokeColor=#ae4132;" vertex="1" parent="1">
          <mxGeometry x="50" y="540" width="30" height="30" as="geometry" />
        </mxCell>
        <mxCell id="_Xig-yr3xcJaS5qAGyrN-110" value="&lt;font style=&quot;font-size: 25px;&quot;&gt;A&lt;/font&gt;" style="shape=ext;double=1;rounded=0;whiteSpace=wrap;html=1;fillColor=#fad9d5;strokeColor=#ae4132;" vertex="1" parent="1">
          <mxGeometry x="50" y="750" width="30" height="30" as="geometry" />
        </mxCell>
        <mxCell id="_Xig-yr3xcJaS5qAGyrN-111" value="&lt;font style=&quot;font-size: 25px;&quot;&gt;A&lt;/font&gt;" style="shape=ext;double=1;rounded=0;whiteSpace=wrap;html=1;fillColor=#fad9d5;strokeColor=#ae4132;" vertex="1" parent="1">
          <mxGeometry x="555" y="750" width="30" height="30" as="geometry" />
        </mxCell>
        <mxCell id="_Xig-yr3xcJaS5qAGyrN-112" value="&lt;font style=&quot;font-size: 25px;&quot;&gt;A&lt;/font&gt;" style="shape=ext;double=1;rounded=0;whiteSpace=wrap;html=1;fillColor=#fad9d5;strokeColor=#ae4132;" vertex="1" parent="1">
          <mxGeometry x="555" y="835" width="30" height="30" as="geometry" />
        </mxCell>
        <mxCell id="_Xig-yr3xcJaS5qAGyrN-113" value="&lt;font style=&quot;font-size: 25px;&quot;&gt;A&lt;/font&gt;" style="shape=ext;double=1;rounded=0;whiteSpace=wrap;html=1;fillColor=#fad9d5;strokeColor=#ae4132;" vertex="1" parent="1">
          <mxGeometry x="555" y="1010" width="30" height="30" as="geometry" />
        </mxCell>
      </root>
    </mxGraphModel>
  </diagram>
</mxfile>
